<svg xmlns="http://www.w3.org/2000/svg" viewBox="0 0 780 500" role="img" aria-label="Visa">
  <rect width="780" height="500" rx="40" fill="#1a1f71"/>
  <path d="M293 348.7L323.7 152h49.4L342.4 348.7H293z" fill="#fff"/>
  <path d="M524.3 157.1c-9.8-3.7-25.1-7.7-44.3-7.7-48.8 0-83.2 24.7-83.5 60-0.3 26.1 24.5 40.6 43.2 49.3 19.2 8.9 25.7 14.6 25.6 22.6-0.1 12.2-15.3 17.8-29.5 17.8-19.8 0-30.3-2.8-46.4-9.5l-6.4-2.9-6.9 40.6c11.5 5.1 32.7 9.5 54.7 9.7 51.6 0 85.1-24.3 85.5-61.9 0.2-20.6-12.9-36.3-41.2-49.2-17.1-8.4-27.6-14-27.5-22.5 0-7.5 8.9-15.6 28.1-15.6 16.1-0.3 27.7 3.3 36.7 7l4.4 2.1 6.5-38.8z" fill="#fff"/>
  <path d="M641.3 152h-38.1c-11.8 0-20.6 3.2-25.8 15L506.4 348.7h51.6l10.3-27.2h63l5.8 27.2h45.5L641.3 152zm-60.4 132l19.6-51 5.3-13.7 2.7 12.4 9.2 52.3h-36.8z" fill="#fff"/>
  <path d="M230.2 152l-48.4 133.3-5.1-25.3c-9-28.9-36.9-60.2-68.1-75.8l44.2 164.5h51.9L303.8 152h-73.6z" fill="#fff"/>
  <path d="M131.3 152H51.7l-0.7 3.7c61.9 15.2 102.9 51.9 119.9 96l-17.3-83.4c-3-11.5-11.6-15.9-22.3-16.3z" fill="#f9a533"/>
</svg>
